<svg width="1161" height="578" viewBox="0 0 1161 578" fill="none" xmlns="http://www.w3.org/2000/svg">
<rect y="79.5" width="220" height="44" rx="5" fill="black"/>
<path d="M22 93.5H38V105.5H23.17L22 106.67V93.5ZM22 91.5C20.9 91.5 20.01 92.4 20.01 93.5L20 111.5L24 107.5H38C39.1 107.5 40 106.6 40 105.5V93.5C40 92.4 39.1 91.5 38 91.5H22ZM24 101.5H36V103.5H24V101.5ZM24 98.5H36V100.5H24V98.5ZM24 95.5H36V97.5H24V95.5Z" fill="white"/>
<path d="M61.136 96.332L57.04 107.5H54.32L50.224 96.332H52.624L55.696 105.212L58.752 96.332H61.136ZM64.719 96.332V107.5H62.479V96.332H64.719ZM73.7801 105.372H69.3321L68.5961 107.5H66.2441L70.2601 96.316H72.8681L76.8841 107.5H74.5161L73.7801 105.372ZM73.1721 103.58L71.5561 98.908L69.9401 103.58H73.1721ZM86.0538 107.612C85.2751 107.612 84.5711 107.479 83.9418 107.212C83.3231 106.945 82.8324 106.561 82.4698 106.06C82.1071 105.559 81.9204 104.967 81.9098 104.284H84.3098C84.3418 104.743 84.5018 105.105 84.7898 105.372C85.0884 105.639 85.4938 105.772 86.0058 105.772C86.5284 105.772 86.9391 105.649 87.2378 105.404C87.5364 105.148 87.6858 104.817 87.6858 104.412C87.6858 104.081 87.5844 103.809 87.3818 103.596C87.1791 103.383 86.9231 103.217 86.6138 103.1C86.3151 102.972 85.8991 102.833 85.3658 102.684C84.6404 102.471 84.0484 102.263 83.5898 102.06C83.1418 101.847 82.7524 101.532 82.4218 101.116C82.1018 100.689 81.9418 100.124 81.9418 99.42C81.9418 98.7587 82.1071 98.1827 82.4378 97.692C82.7684 97.2013 83.2324 96.828 83.8298 96.572C84.4271 96.3053 85.1098 96.172 85.8778 96.172C87.0298 96.172 87.9631 96.4547 88.6778 97.02C89.4031 97.5747 89.8031 98.3533 89.8778 99.356H87.4138C87.3924 98.972 87.2271 98.6573 86.9178 98.412C86.6191 98.156 86.2191 98.028 85.7178 98.028C85.2804 98.028 84.9284 98.14 84.6618 98.364C84.4058 98.588 84.2778 98.9133 84.2778 99.34C84.2778 99.6387 84.3738 99.8893 84.5658 100.092C84.7684 100.284 85.0138 100.444 85.3018 100.572C85.6004 100.689 86.0164 100.828 86.5498 100.988C87.2751 101.201 87.8671 101.415 88.3258 101.628C88.7844 101.841 89.1791 102.161 89.5098 102.588C89.8404 103.015 90.0058 103.575 90.0058 104.268C90.0058 104.865 89.8511 105.42 89.5417 105.932C89.2324 106.444 88.7791 106.855 88.1818 107.164C87.5844 107.463 86.8751 107.612 86.0538 107.612ZM94.1558 96.332V103.244C94.1558 104.001 94.3531 104.583 94.7478 104.988C95.1424 105.383 95.6971 105.58 96.4118 105.58C97.1371 105.58 97.6971 105.383 98.0918 104.988C98.4864 104.583 98.6838 104.001 98.6838 103.244V96.332H100.94V103.228C100.94 104.177 100.732 104.983 100.316 105.644C99.9104 106.295 99.3611 106.785 98.6678 107.116C97.9851 107.447 97.2224 107.612 96.3798 107.612C95.5478 107.612 94.7904 107.447 94.1078 107.116C93.4358 106.785 92.9024 106.295 92.5078 105.644C92.1131 104.983 91.9158 104.177 91.9158 103.228V96.332H94.1558ZM111.248 99.788C111.248 100.385 111.104 100.945 110.816 101.468C110.539 101.991 110.096 102.412 109.488 102.732C108.891 103.052 108.133 103.212 107.216 103.212H105.344V107.5H103.104V96.332H107.216C108.08 96.332 108.816 96.4813 109.424 96.78C110.032 97.0787 110.485 97.4893 110.784 98.012C111.093 98.5347 111.248 99.1267 111.248 99.788ZM107.12 101.404C107.739 101.404 108.197 101.265 108.496 100.988C108.795 100.7 108.944 100.3 108.944 99.788C108.944 98.7 108.336 98.156 107.12 98.156H105.344V101.404H107.12ZM120.982 99.788C120.982 100.385 120.838 100.945 120.55 101.468C120.273 101.991 119.83 102.412 119.222 102.732C118.625 103.052 117.868 103.212 116.95 103.212H115.078V107.5H112.838V96.332H116.95C117.814 96.332 118.55 96.4813 119.158 96.78C119.766 97.0787 120.22 97.4893 120.518 98.012C120.828 98.5347 120.982 99.1267 120.982 99.788ZM116.854 101.404C117.473 101.404 117.932 101.265 118.23 100.988C118.529 100.7 118.678 100.3 118.678 99.788C118.678 98.7 118.07 98.156 116.854 98.156H115.078V101.404H116.854ZM127.757 107.612C126.711 107.612 125.751 107.367 124.877 106.876C124.002 106.385 123.309 105.708 122.797 104.844C122.285 103.969 122.029 102.983 122.029 101.884C122.029 100.796 122.285 99.82 122.797 98.956C123.309 98.0813 124.002 97.3987 124.877 96.908C125.751 96.4173 126.711 96.172 127.757 96.172C128.813 96.172 129.773 96.4173 130.637 96.908C131.511 97.3987 132.199 98.0813 132.701 98.956C133.213 99.82 133.469 100.796 133.469 101.884C133.469 102.983 133.213 103.969 132.701 104.844C132.199 105.708 131.511 106.385 130.637 106.876C129.762 107.367 128.802 107.612 127.757 107.612ZM127.757 105.612C128.429 105.612 129.021 105.463 129.533 105.164C130.045 104.855 130.445 104.417 130.733 103.852C131.021 103.287 131.165 102.631 131.165 101.884C131.165 101.137 131.021 100.487 130.733 99.932C130.445 99.3667 130.045 98.9347 129.533 98.636C129.021 98.3373 128.429 98.188 127.757 98.188C127.085 98.188 126.487 98.3373 125.965 98.636C125.453 98.9347 125.053 99.3667 124.765 99.932C124.477 100.487 124.333 101.137 124.333 101.884C124.333 102.631 124.477 103.287 124.765 103.852C125.053 104.417 125.453 104.855 125.965 105.164C126.487 105.463 127.085 105.612 127.757 105.612ZM140.895 107.5L138.431 103.148H137.375V107.5H135.135V96.332H139.327C140.191 96.332 140.927 96.4867 141.535 96.796C142.143 97.0947 142.597 97.5053 142.895 98.028C143.205 98.54 143.359 99.116 143.359 99.756C143.359 100.492 143.146 101.159 142.719 101.756C142.293 102.343 141.658 102.748 140.815 102.972L143.487 107.5H140.895ZM137.375 101.468H139.247C139.855 101.468 140.309 101.324 140.607 101.036C140.906 100.737 141.055 100.327 141.055 99.804C141.055 99.292 140.906 98.8973 140.607 98.62C140.309 98.332 139.855 98.188 139.247 98.188H137.375V101.468ZM152.985 96.332V98.14H150.009V107.5H147.769V98.14H144.793V96.332H152.985ZM157.888 101.9C157.888 100.801 158.133 99.82 158.624 98.956C159.125 98.0813 159.803 97.404 160.656 96.924C161.52 96.4333 162.485 96.188 163.552 96.188C164.8 96.188 165.893 96.508 166.832 97.148C167.771 97.788 168.427 98.6733 168.8 99.804H166.224C165.968 99.2707 165.605 98.8707 165.136 98.604C164.677 98.3373 164.144 98.204 163.536 98.204C162.885 98.204 162.304 98.3587 161.792 98.668C161.291 98.9667 160.896 99.3933 160.608 99.948C160.331 100.503 160.192 101.153 160.192 101.9C160.192 102.636 160.331 103.287 160.608 103.852C160.896 104.407 161.291 104.839 161.792 105.148C162.304 105.447 162.885 105.596 163.536 105.596C164.144 105.596 164.677 105.463 165.136 105.196C165.605 104.919 165.968 104.513 166.224 103.98H168.8C168.427 105.121 167.771 106.012 166.832 106.652C165.904 107.281 164.811 107.596 163.552 107.596C162.485 107.596 161.52 107.356 160.656 106.876C159.803 106.385 159.125 105.708 158.624 104.844C158.133 103.98 157.888 102.999 157.888 101.9ZM179.977 96.332V107.5H177.737V102.748H172.953V107.5H170.713V96.332H172.953V100.924H177.737V96.332H179.977ZM189.03 105.372H184.582L183.846 107.5H181.494L185.51 96.316H188.118L192.134 107.5H189.766L189.03 105.372ZM188.422 103.58L186.806 98.908L185.19 103.58H188.422ZM201.235 96.332V98.14H198.259V107.5H196.019V98.14H193.043V96.332H201.235Z" fill="white"/>
<rect x="252" y="79.5" width="220" height="44" rx="5" fill="black"/>
<path d="M317.62 100.29C319.06 103.12 321.38 105.43 324.21 106.88L326.41 104.68C326.68 104.41 327.08 104.32 327.43 104.44C328.55 104.81 329.76 105.01 331 105.01C331.55 105.01 332 105.46 332 106.01V109.5C332 110.05 331.55 110.5 331 110.5C321.61 110.5 314 102.89 314 93.5C314 92.95 314.45 92.5 315 92.5H318.5C319.05 92.5 319.5 92.95 319.5 93.5C319.5 94.75 319.7 95.95 320.07 97.07C320.18 97.42 320.1 97.81 319.82 98.09L317.62 100.29Z" fill="white"/>
<path d="M354.136 96.332L350.04 107.5H347.32L343.224 96.332H345.624L348.696 105.212L351.752 96.332H354.136ZM357.719 96.332V107.5H355.479V96.332H357.719ZM366.78 105.372H362.332L361.596 107.5H359.244L363.26 96.316H365.868L369.884 107.5H367.516L366.78 105.372ZM366.172 103.58L364.556 98.908L362.94 103.58H366.172ZM374.654 101.9C374.654 100.801 374.899 99.82 375.39 98.956C375.891 98.0813 376.568 97.404 377.422 96.924C378.286 96.4333 379.251 96.188 380.318 96.188C381.566 96.188 382.659 96.508 383.598 97.148C384.536 97.788 385.192 98.6733 385.566 99.804H382.99C382.734 99.2707 382.371 98.8707 381.902 98.604C381.443 98.3373 380.91 98.204 380.302 98.204C379.651 98.204 379.07 98.3587 378.558 98.668C378.056 98.9667 377.662 99.3933 377.374 99.948C377.096 100.503 376.958 101.153 376.958 101.9C376.958 102.636 377.096 103.287 377.374 103.852C377.662 104.407 378.056 104.839 378.558 105.148C379.07 105.447 379.651 105.596 380.302 105.596C380.91 105.596 381.443 105.463 381.902 105.196C382.371 104.919 382.734 104.513 382.99 103.98H385.566C385.192 105.121 384.536 106.012 383.598 106.652C382.67 107.281 381.576 107.596 380.318 107.596C379.251 107.596 378.286 107.356 377.422 106.876C376.568 106.385 375.891 105.708 375.39 104.844C374.899 103.98 374.654 102.999 374.654 101.9ZM394.327 105.372H389.879L389.143 107.5H386.791L390.807 96.316H393.415L397.431 107.5H395.063L394.327 105.372ZM393.719 103.58L392.103 98.908L390.487 103.58H393.719ZM401.172 105.724H404.852V107.5H398.932V96.332H401.172V105.724ZM408.516 105.724H412.196V107.5H406.276V96.332H408.516V105.724Z" fill="white"/>
<rect x="0.5" y="141" width="471" height="43" rx="4.5" fill="white"/>
<rect x="0.5" y="141" width="471" height="43" rx="4.5" stroke="black"/>
<path d="M160.5 154.5H176.5V166.5H161.67L160.5 167.67V154.5ZM160.5 152.5C159.4 152.5 158.51 153.4 158.51 154.5L158.5 172.5L162.5 168.5H176.5C177.6 168.5 178.5 167.6 178.5 166.5V154.5C178.5 153.4 177.6 152.5 176.5 152.5H160.5ZM162.5 162.5H174.5V164.5H162.5V162.5ZM162.5 159.5H174.5V161.5H162.5V159.5ZM162.5 156.5H174.5V158.5H162.5V156.5Z" fill="black"/>
<path d="M199.636 157.332L195.54 168.5H192.82L188.724 157.332H191.124L194.196 166.212L197.252 157.332H199.636ZM203.219 157.332V168.5H200.979V157.332H203.219ZM212.28 166.372H207.832L207.096 168.5H204.744L208.76 157.316H211.368L215.384 168.5H213.016L212.28 166.372ZM211.672 164.58L210.056 159.908L208.44 164.58H211.672ZM222.938 159.14V161.94H226.698V163.716H222.938V166.676H227.178V168.5H220.698V157.316H227.178V159.14H222.938ZM241.389 157.332V168.5H239.149V161.236L236.157 168.5H234.461L231.453 161.236V168.5H229.213V157.332H231.757L235.309 165.636L238.861 157.332H241.389ZM250.452 166.372H246.004L245.268 168.5H242.916L246.932 157.316H249.54L253.556 168.5H251.188L250.452 166.372ZM249.844 164.58L248.228 159.908L246.612 164.58H249.844ZM257.297 157.332V168.5H255.057V157.332H257.297ZM261.75 166.724H265.43V168.5H259.51V157.332H261.75V166.724ZM277.562 157.332V159.14H272.907V162.004H276.475V163.78H272.907V168.5H270.667V157.332H277.562ZM284.335 168.612C283.29 168.612 282.33 168.367 281.455 167.876C280.58 167.385 279.887 166.708 279.375 165.844C278.863 164.969 278.607 163.983 278.607 162.884C278.607 161.796 278.863 160.82 279.375 159.956C279.887 159.081 280.58 158.399 281.455 157.908C282.33 157.417 283.29 157.172 284.335 157.172C285.391 157.172 286.351 157.417 287.215 157.908C288.09 158.399 288.778 159.081 289.279 159.956C289.791 160.82 290.047 161.796 290.047 162.884C290.047 163.983 289.791 164.969 289.279 165.844C288.778 166.708 288.09 167.385 287.215 167.876C286.34 168.367 285.38 168.612 284.335 168.612ZM284.335 166.612C285.007 166.612 285.599 166.463 286.111 166.164C286.623 165.855 287.023 165.417 287.311 164.852C287.599 164.287 287.743 163.631 287.743 162.884C287.743 162.137 287.599 161.487 287.311 160.932C287.023 160.367 286.623 159.935 286.111 159.636C285.599 159.337 285.007 159.188 284.335 159.188C283.663 159.188 283.066 159.337 282.543 159.636C282.031 159.935 281.631 160.367 281.343 160.932C281.055 161.487 280.911 162.137 280.911 162.884C280.911 163.631 281.055 164.287 281.343 164.852C281.631 165.417 282.031 165.855 282.543 166.164C283.066 166.463 283.663 166.612 284.335 166.612ZM297.473 168.5L295.009 164.148H293.953V168.5H291.713V157.332H295.905C296.769 157.332 297.505 157.487 298.113 157.796C298.721 158.095 299.175 158.505 299.473 159.028C299.783 159.54 299.937 160.116 299.937 160.756C299.937 161.492 299.724 162.159 299.297 162.756C298.871 163.343 298.236 163.748 297.393 163.972L300.065 168.5H297.473ZM293.953 162.468H295.825C296.433 162.468 296.887 162.324 297.185 162.036C297.484 161.737 297.633 161.327 297.633 160.804C297.633 160.292 297.484 159.897 297.185 159.62C296.887 159.332 296.433 159.188 295.825 159.188H293.953V162.468ZM314.139 157.332V168.5H311.899V161.236L308.907 168.5H307.211L304.203 161.236V168.5H301.963V157.332H304.507L308.059 165.636L311.611 157.332H314.139Z" fill="black"/>
<rect x="16.5" y="218" width="439" height="39" fill="white" stroke="#5A5959"/>
<rect width="52" height="21" transform="translate(40 207.5)" fill="white"/>
<path d="M53.324 222.5H51.364L46.926 215.794V222.5H44.966V212.714H46.926L51.364 219.434V212.714H53.324V222.5ZM54.7569 218.594C54.7569 217.81 54.9109 217.115 55.2189 216.508C55.5363 215.901 55.9609 215.435 56.4929 215.108C57.0343 214.781 57.6363 214.618 58.2989 214.618C58.8776 214.618 59.3816 214.735 59.8109 214.968C60.2496 215.201 60.5996 215.495 60.8609 215.85V214.744H62.8349V222.5H60.8609V221.366C60.6089 221.73 60.2589 222.033 59.8109 222.276C59.3723 222.509 58.8636 222.626 58.2849 222.626C57.6316 222.626 57.0343 222.458 56.4929 222.122C55.9609 221.786 55.5363 221.315 55.2189 220.708C54.9109 220.092 54.7569 219.387 54.7569 218.594ZM60.8609 218.622C60.8609 218.146 60.7676 217.74 60.5809 217.404C60.3943 217.059 60.1423 216.797 59.8249 216.62C59.5076 216.433 59.1669 216.34 58.8029 216.34C58.4389 216.34 58.1029 216.429 57.7949 216.606C57.4869 216.783 57.2349 217.045 57.0389 217.39C56.8523 217.726 56.7589 218.127 56.7589 218.594C56.7589 219.061 56.8523 219.471 57.0389 219.826C57.2349 220.171 57.4869 220.437 57.7949 220.624C58.1123 220.811 58.4483 220.904 58.8029 220.904C59.1669 220.904 59.5076 220.815 59.8249 220.638C60.1423 220.451 60.3943 220.19 60.5809 219.854C60.7676 219.509 60.8609 219.098 60.8609 218.622ZM74.3812 214.632C75.3332 214.632 76.0985 214.926 76.6772 215.514C77.2652 216.093 77.5592 216.905 77.5592 217.95V222.5H75.5992V218.216C75.5992 217.609 75.4452 217.147 75.1372 216.83C74.8292 216.503 74.4092 216.34 73.8772 216.34C73.3452 216.34 72.9205 216.503 72.6032 216.83C72.2952 217.147 72.1412 217.609 72.1412 218.216V222.5H70.1812V218.216C70.1812 217.609 70.0272 217.147 69.7192 216.83C69.4112 216.503 68.9912 216.34 68.4592 216.34C67.9179 216.34 67.4885 216.503 67.1712 216.83C66.8632 217.147 66.7092 217.609 66.7092 218.216V222.5H64.7492V214.744H66.7092V215.682C66.9612 215.355 67.2832 215.099 67.6752 214.912C68.0765 214.725 68.5152 214.632 68.9912 214.632C69.5979 214.632 70.1392 214.763 70.6152 215.024C71.0912 215.276 71.4599 215.64 71.7212 216.116C71.9732 215.668 72.3372 215.309 72.8132 215.038C73.2985 214.767 73.8212 214.632 74.3812 214.632ZM86.6291 218.454C86.6291 218.734 86.6105 218.986 86.5731 219.21H80.9031C80.9498 219.77 81.1458 220.209 81.4911 220.526C81.8365 220.843 82.2611 221.002 82.7651 221.002C83.4931 221.002 84.0111 220.689 84.3191 220.064H86.4331C86.2091 220.811 85.7798 221.427 85.1451 221.912C84.5105 222.388 83.7311 222.626 82.8071 222.626C82.0605 222.626 81.3885 222.463 80.7911 222.136C80.2031 221.8 79.7411 221.329 79.4051 220.722C79.0785 220.115 78.9151 219.415 78.9151 218.622C78.9151 217.819 79.0785 217.115 79.4051 216.508C79.7318 215.901 80.1891 215.435 80.7771 215.108C81.3651 214.781 82.0418 214.618 82.8071 214.618C83.5445 214.618 84.2025 214.777 84.7811 215.094C85.3691 215.411 85.8218 215.864 86.1391 216.452C86.4658 217.031 86.6291 217.698 86.6291 218.454ZM84.5991 217.894C84.5898 217.39 84.4078 216.989 84.0531 216.69C83.6985 216.382 83.2645 216.228 82.7511 216.228C82.2658 216.228 81.8551 216.377 81.5191 216.676C81.1925 216.965 80.9918 217.371 80.9171 217.894H84.5991Z" fill="black"/>
<rect x="16.5" y="287" width="439" height="39" fill="white" stroke="#5A5959"/>
<rect width="54" height="21" transform="translate(40 277.5)" fill="white"/>
<path d="M46.926 284.31V286.76H50.216V288.314H46.926V290.904H50.636V292.5H44.966V282.714H50.636V284.31H46.926ZM58.3812 286.676V288.328H52.4452V286.676H58.3812ZM71.2333 282.728V292.5H69.2733V286.144L66.6553 292.5H65.1713L62.5393 286.144V292.5H60.5793V282.728H62.8053L65.9133 289.994L69.0213 282.728H71.2333ZM72.6671 288.594C72.6671 287.81 72.8211 287.115 73.1291 286.508C73.4464 285.901 73.8711 285.435 74.4031 285.108C74.9444 284.781 75.5464 284.618 76.2091 284.618C76.7877 284.618 77.2917 284.735 77.7211 284.968C78.1597 285.201 78.5097 285.495 78.7711 285.85V284.744H80.7451V292.5H78.7711V291.366C78.5191 291.73 78.1691 292.033 77.7211 292.276C77.2824 292.509 76.7737 292.626 76.1951 292.626C75.5417 292.626 74.9444 292.458 74.4031 292.122C73.8711 291.786 73.4464 291.315 73.1291 290.708C72.8211 290.092 72.6671 289.387 72.6671 288.594ZM78.7711 288.622C78.7711 288.146 78.6777 287.74 78.4911 287.404C78.3044 287.059 78.0524 286.797 77.7351 286.62C77.4177 286.433 77.0771 286.34 76.7131 286.34C76.3491 286.34 76.0131 286.429 75.7051 286.606C75.3971 286.783 75.1451 287.045 74.9491 287.39C74.7624 287.726 74.6691 288.127 74.6691 288.594C74.6691 289.061 74.7624 289.471 74.9491 289.826C75.1451 290.171 75.3971 290.437 75.7051 290.624C76.0224 290.811 76.3584 290.904 76.7131 290.904C77.0771 290.904 77.4177 290.815 77.7351 290.638C78.0524 290.451 78.3044 290.19 78.4911 289.854C78.6777 289.509 78.7711 289.098 78.7711 288.622ZM83.6534 283.82C83.308 283.82 83.0187 283.713 82.7854 283.498C82.5614 283.274 82.4494 282.999 82.4494 282.672C82.4494 282.345 82.5614 282.075 82.7854 281.86C83.0187 281.636 83.308 281.524 83.6534 281.524C83.9987 281.524 84.2834 281.636 84.5074 281.86C84.7407 282.075 84.8574 282.345 84.8574 282.672C84.8574 282.999 84.7407 283.274 84.5074 283.498C84.2834 283.713 83.9987 283.82 83.6534 283.82ZM84.6194 284.744V292.5H82.6594V284.744H84.6194ZM88.5158 282.14V292.5H86.5558V282.14H88.5158Z" fill="black"/>
<rect x="16.5" y="356" width="439" height="119" fill="white" stroke="#5A5959"/>
<rect width="42" height="21" transform="translate(40 346.5)" fill="white"/>
<path d="M51.616 351.728V353.31H49.012V361.5H47.052V353.31H44.448V351.728H51.616ZM55.0061 353.31V355.76H58.2961V357.314H55.0061V359.904H58.7161V361.5H53.0461V351.714H58.7161V353.31H55.0061ZM66.3493 361.5L64.2353 358.21L62.3173 361.5H60.1053L63.1853 356.572L60.0633 351.728H62.3173L64.4313 355.004L66.3353 351.728H68.5473L65.4813 356.642L68.6033 361.5H66.3493ZM76.7449 351.728V353.31H74.1409V361.5H72.1809V353.31H69.5769V351.728H76.7449Z" fill="black"/>
<rect x="236" y="492.5" width="220" height="44" rx="5" fill="black"/>
<path d="M320.96 520.612C320.181 520.612 319.477 520.479 318.848 520.212C318.229 519.945 317.739 519.561 317.376 519.06C317.013 518.559 316.827 517.967 316.816 517.284H319.216C319.248 517.743 319.408 518.105 319.696 518.372C319.995 518.639 320.4 518.772 320.912 518.772C321.435 518.772 321.845 518.649 322.144 518.404C322.443 518.148 322.592 517.817 322.592 517.412C322.592 517.081 322.491 516.809 322.288 516.596C322.085 516.383 321.829 516.217 321.52 516.1C321.221 515.972 320.805 515.833 320.272 515.684C319.547 515.471 318.955 515.263 318.496 515.06C318.048 514.847 317.659 514.532 317.328 514.116C317.008 513.689 316.848 513.124 316.848 512.42C316.848 511.759 317.013 511.183 317.344 510.692C317.675 510.201 318.139 509.828 318.736 509.572C319.333 509.305 320.016 509.172 320.784 509.172C321.936 509.172 322.869 509.455 323.584 510.02C324.309 510.575 324.709 511.353 324.784 512.356H322.32C322.299 511.972 322.133 511.657 321.824 511.412C321.525 511.156 321.125 511.028 320.624 511.028C320.187 511.028 319.835 511.14 319.568 511.364C319.312 511.588 319.184 511.913 319.184 512.34C319.184 512.639 319.28 512.889 319.472 513.092C319.675 513.284 319.92 513.444 320.208 513.572C320.507 513.689 320.923 513.828 321.456 513.988C322.181 514.201 322.773 514.415 323.232 514.628C323.691 514.841 324.085 515.161 324.416 515.588C324.747 516.015 324.912 516.575 324.912 517.268C324.912 517.865 324.757 518.42 324.448 518.932C324.139 519.444 323.685 519.855 323.088 520.164C322.491 520.463 321.781 520.612 320.96 520.612ZM329.062 509.332V516.244C329.062 517.001 329.259 517.583 329.654 517.988C330.049 518.383 330.603 518.58 331.318 518.58C332.043 518.58 332.603 518.383 332.998 517.988C333.393 517.583 333.59 517.001 333.59 516.244V509.332H335.846V516.228C335.846 517.177 335.638 517.983 335.222 518.644C334.817 519.295 334.267 519.785 333.574 520.116C332.891 520.447 332.129 520.612 331.286 520.612C330.454 520.612 329.697 520.447 329.014 520.116C328.342 519.785 327.809 519.295 327.414 518.644C327.019 517.983 326.822 517.177 326.822 516.228V509.332H329.062ZM344.346 514.772C344.976 514.889 345.493 515.204 345.898 515.716C346.304 516.228 346.506 516.815 346.506 517.476C346.506 518.073 346.357 518.601 346.058 519.06C345.77 519.508 345.349 519.86 344.794 520.116C344.24 520.372 343.584 520.5 342.826 520.5H338.01V509.332H342.618C343.376 509.332 344.026 509.455 344.57 509.7C345.125 509.945 345.541 510.287 345.818 510.724C346.106 511.161 346.25 511.657 346.25 512.212C346.25 512.863 346.074 513.407 345.722 513.844C345.381 514.281 344.922 514.591 344.346 514.772ZM340.25 513.94H342.298C342.832 513.94 343.242 513.823 343.53 513.588C343.818 513.343 343.962 512.996 343.962 512.548C343.962 512.1 343.818 511.753 343.53 511.508C343.242 511.263 342.832 511.14 342.298 511.14H340.25V513.94ZM342.506 518.676C343.05 518.676 343.472 518.548 343.77 518.292C344.08 518.036 344.234 517.673 344.234 517.204C344.234 516.724 344.074 516.351 343.754 516.084C343.434 515.807 343.002 515.668 342.458 515.668H340.25V518.676H342.506ZM360.468 509.332V520.5H358.228V513.236L355.236 520.5H353.54L350.532 513.236V520.5H348.292V509.332H350.836L354.388 517.636L357.94 509.332H360.468ZM364.922 509.332V520.5H362.682V509.332H364.922ZM374.735 509.332V511.14H371.759V520.5H369.519V511.14H366.543V509.332H374.735Z" fill="white"/>
<g filter="url(#filter0_d_3_320)">
<path d="M758.504 43.2302C760.272 42.1588 762.174 41.3314 764.158 40.7702L765.314 35.1245L774.75 34.9523L776.112 40.5611C778.112 41.06 780.038 41.8252 781.839 42.8366L786.606 39.6755L793.403 46.3175L790.448 51.2375C791.508 53.0211 792.326 54.9407 792.88 56.9447L798.462 58.1132L798.632 67.658L793.087 69.0233C792.596 71.0472 791.839 72.9956 790.837 74.8166L793.963 79.6505L787.396 86.5139L782.532 83.525C780.769 84.597 778.871 85.4244 776.89 85.985L775.674 91.6307L766.238 91.8029L764.876 86.1941C762.88 85.6951 760.958 84.9299 759.161 83.9186L754.382 87.0797L747.56 80.45L750.515 75.53C749.456 73.7417 748.638 71.8182 748.083 69.8105L742.501 68.5805L742.331 59.0357L747.876 57.6581C748.369 55.6348 749.126 53.6867 750.126 51.8648L747.001 47.0309L753.64 40.2413L758.504 43.2302ZM763.538 55.9484C762.146 57.4055 761.212 59.2474 760.855 61.2413C760.498 63.2352 760.733 65.2914 761.531 67.1501C762.329 69.0087 763.654 70.5862 765.339 71.6832C767.023 72.7802 768.991 73.3473 770.994 73.3129C772.997 73.2785 774.945 72.6441 776.592 71.4899C778.238 70.3358 779.509 68.7137 780.245 66.8287C780.98 64.9437 781.146 62.8806 780.722 60.9001C780.298 58.9197 779.303 57.1109 777.863 55.7024C776.905 54.7611 775.772 54.0205 774.53 53.5232C773.288 53.0259 771.961 52.7817 770.626 52.8045C769.29 52.8274 767.972 53.1169 766.748 53.6564C765.523 54.1959 764.416 54.9748 763.49 55.9484H763.538Z" fill="#E0E0E0"/>
<path d="M760.693 360.004C761.711 359.383 762.807 358.904 763.952 358.578L764.62 355.318L770.068 355.22L770.846 358.455C772.002 358.737 773.114 359.176 774.154 359.758L776.902 357.938L780.818 361.763L779.176 364.58C779.79 365.61 780.264 366.719 780.587 367.876L783.809 368.553L783.906 374.063L780.708 374.851C780.429 376.019 779.995 377.144 779.419 378.196L781.219 380.976L777.437 384.936L774.628 383.214C773.608 383.834 772.512 384.318 771.369 384.654L770.664 387.95L765.216 388.048L764.438 384.814C763.283 384.531 762.17 384.092 761.131 383.51L758.382 385.33L754.467 381.505L756.169 378.664C755.557 377.631 755.078 376.523 754.747 375.367L751.536 374.691L751.439 369.18L754.637 368.393C754.916 367.224 755.35 366.099 755.926 365.047L754.126 362.268L757.908 358.307L760.717 360.029L760.693 360.004ZM763.599 367.384C762.794 368.226 762.253 369.29 762.046 370.442C761.839 371.594 761.974 372.782 762.435 373.856C762.896 374.93 763.662 375.842 764.635 376.476C765.609 377.109 766.746 377.436 767.904 377.416C769.061 377.395 770.187 377.027 771.137 376.359C772.088 375.691 772.822 374.753 773.245 373.663C773.668 372.573 773.762 371.381 773.515 370.237C773.267 369.093 772.69 368.049 771.856 367.237C771.307 366.695 770.659 366.267 769.947 365.979C769.235 365.69 768.474 365.546 767.707 365.555C766.94 365.565 766.183 365.727 765.478 366.032C764.773 366.337 764.135 366.78 763.599 367.335V367.384Z" fill="#E0E0E0"/>
<path d="M642.108 73.5989C642.804 73.1733 643.552 72.8425 644.334 72.6149L644.796 70.3886H648.505L649.064 72.5288C649.852 72.7313 650.612 73.033 651.326 73.4267L653.198 72.1967L655.874 74.8043L654.658 76.7477C655.078 77.4514 655.405 78.2083 655.63 78.9986L657.831 79.466V83.156L655.643 83.6972C655.452 84.4956 655.158 85.265 654.767 85.985L655.983 87.8792L653.405 90.5852L651.484 89.3552C650.788 89.7808 650.04 90.1116 649.259 90.3392L648.796 92.5655H645.148L644.613 90.3515C643.824 90.1589 643.063 89.8611 642.352 89.4659L640.479 90.6959L637.804 88.076L639.02 86.1449C638.599 85.4411 638.272 84.6843 638.047 83.894L635.846 83.4266L635.785 79.7366L637.962 79.1954C638.162 78.3983 638.46 77.6297 638.85 76.9076L637.634 75.0134L640.212 72.3074L642.133 73.5374L642.108 73.5989ZM644.091 78.605C643.543 79.179 643.176 79.9044 643.035 80.6894C642.895 81.4745 642.988 82.284 643.303 83.0156C643.617 83.7472 644.139 84.3681 644.802 84.7997C645.466 85.2314 646.24 85.4544 647.029 85.4406C647.818 85.4269 648.584 85.177 649.233 84.7225C649.881 84.2679 650.381 83.6292 650.671 82.8871C650.96 82.145 651.025 81.3327 650.858 80.553C650.691 79.7733 650.3 79.0612 649.733 78.5066C649.356 78.1381 648.911 77.8483 648.424 77.6538C647.936 77.4593 647.416 77.3639 646.892 77.373C646.368 77.3822 645.85 77.4957 645.37 77.7071C644.889 77.9185 644.455 78.2236 644.091 78.605Z" fill="#E0E0E0"/>
<path d="M823.633 65.69C825.005 64.8514 826.481 64.202 828.023 63.7589L828.923 59.3678L836.219 59.2325L837.276 63.599C838.836 63.9846 840.337 64.5803 841.739 65.3702L845.387 62.9102L850.774 68.15L848.488 71.9384C849.32 73.3288 849.962 74.8266 850.397 76.391L854.75 77.3012L854.872 84.6812L850.567 85.7513C850.176 87.3366 849.579 88.8627 848.792 90.29L851.224 94.0538L846.129 99.392L842.335 97.0673C840.962 97.9033 839.486 98.5526 837.945 98.9984L837.033 103.389L829.737 103.525L828.679 99.1583C827.104 98.7818 825.586 98.1901 824.168 97.3994L820.52 99.8594L815.23 94.7057L817.529 90.8681C816.701 89.4754 816.059 87.9783 815.62 86.4155L811.278 85.5053L811.145 78.1253L815.461 77.0552C815.843 75.4819 816.432 73.9677 817.212 72.5534L814.78 68.7896L819.876 63.4514L823.633 65.69ZM827.548 75.53C826.467 76.665 825.742 78.099 825.466 79.6507C825.19 81.2024 825.375 82.802 825.998 84.2472C826.621 85.6924 827.654 86.9183 828.965 87.7698C830.277 88.6213 831.809 89.0602 833.367 89.031C834.926 89.0017 836.441 88.5056 837.72 87.6055C839 86.7053 839.987 85.4415 840.556 83.9739C841.126 82.5063 841.252 80.9009 840.919 79.3606C840.587 77.8204 839.81 76.4145 838.687 75.3209C837.936 74.5999 837.053 74.0358 836.086 73.6609C835.12 73.2861 834.089 73.1078 833.055 73.1364C832.02 73.1649 831.001 73.3998 830.056 73.8274C829.111 74.255 828.259 74.867 827.548 75.6284V75.53Z" fill="#EBEBEB"/>
<path d="M1017.77 249.083C1019.53 248.011 1021.42 247.184 1023.4 246.623L1024.61 240.977L1034.04 240.805L1035.4 246.414C1037.4 246.907 1039.33 247.673 1041.13 248.689L1045.88 245.528L1052.67 252.158L1049.72 257.078C1050.78 258.865 1051.59 260.784 1052.16 262.785L1057.74 264.015L1057.91 273.548L1052.36 274.925C1051.87 276.946 1051.12 278.891 1050.11 280.706L1053.24 285.528L1046.7 292.317L1041.83 289.329C1040.07 290.399 1038.17 291.226 1036.19 291.789L1034.97 297.434L1025.55 297.594L1024.19 292.01C1022.19 291.511 1020.27 290.746 1018.47 289.734L1013.71 292.896L1006.92 286.266L1009.88 281.346C1008.82 279.567 1008 277.651 1007.44 275.651L1001.86 274.421L1001.7 264.95L1007.24 263.572C1007.73 261.549 1008.49 259.601 1009.49 257.779L1006.36 252.97L1012.92 246.106L1017.78 249.095L1017.77 249.083ZM1022.79 261.789C1021.4 263.246 1020.47 265.086 1020.12 267.078C1019.76 269.069 1020 271.123 1020.8 272.978C1021.6 274.833 1022.92 276.407 1024.6 277.501C1026.29 278.595 1028.25 279.159 1030.25 279.123C1032.25 279.087 1034.2 278.452 1035.84 277.298C1037.49 276.144 1038.75 274.524 1039.49 272.641C1040.22 270.758 1040.38 268.697 1039.96 266.72C1039.54 264.742 1038.54 262.936 1037.1 261.531C1036.15 260.595 1035.02 259.859 1033.78 259.366C1032.54 258.872 1031.22 258.63 1029.89 258.654C1028.56 258.678 1027.25 258.968 1026.03 259.505C1024.81 260.043 1023.71 260.819 1022.79 261.789Z" fill="#E0E0E0"/>
<path d="M1084.39 63.5006C1084.4 59.5277 1083.5 55.6066 1081.77 52.0424C1080.03 48.4782 1077.51 45.3669 1074.39 42.9504C1071.27 40.534 1067.64 38.8776 1063.79 38.11C1059.94 37.3424 1055.96 37.4844 1052.17 38.5248C1048.38 39.5653 1044.88 41.4762 1041.93 44.1089C1038.99 46.7416 1036.69 50.0252 1035.21 53.7043C1033.73 57.3833 1033.1 61.3587 1033.39 65.3213C1033.67 69.2838 1034.85 73.1266 1036.85 76.5509L1036.92 76.6493C1037.89 78.3221 1039.12 79.5152 1040.36 81.2618L1055.21 101.139C1055.64 101.703 1056.19 102.16 1056.82 102.474C1057.46 102.788 1058.15 102.952 1058.86 102.952C1059.56 102.952 1060.26 102.788 1060.89 102.474C1061.52 102.16 1062.07 101.703 1062.5 101.139L1077.1 81.5939C1078.42 80.0249 1079.66 78.3824 1080.8 76.6739L1080.87 76.6001C1083.18 72.6326 1084.4 68.108 1084.39 63.5006ZM1058.86 74.7428C1056.63 74.7404 1054.46 74.0717 1052.62 72.8214C1050.77 71.5711 1049.33 69.7953 1048.48 67.7183C1047.64 65.6414 1047.41 63.3566 1047.85 61.1528C1048.28 58.949 1049.36 56.9251 1050.93 55.3368C1052.5 53.7486 1054.5 52.6674 1056.68 52.2299C1058.86 51.7923 1061.12 52.0181 1063.17 52.8787C1065.22 53.7393 1066.98 55.196 1068.21 57.0647C1069.45 58.9334 1070.1 61.1303 1070.1 63.3776C1070.1 64.8711 1069.81 66.35 1069.25 67.7297C1068.68 69.1094 1067.85 70.3628 1066.81 71.4183C1065.76 72.4739 1064.52 73.3108 1063.16 73.8812C1061.79 74.4516 1060.33 74.7444 1058.86 74.7428Z" fill="#E0E0E0"/>
<path d="M634.8 435.243C637.388 433.424 639.391 430.875 640.56 427.915C641.73 424.954 642.014 421.712 641.379 418.589C639.713 409.746 631.651 403.829 623.516 405.416C615.381 407.003 610.018 415.44 611.684 424.296C612.228 427.464 613.689 430.397 615.882 432.725C618.074 435.052 620.901 436.669 624.002 437.371C601.847 445.342 607.72 470.237 607.72 470.237L661.747 459.856C661.747 459.856 658.099 434.247 634.8 435.243Z" fill="#EBEBEB"/>
<path d="M700.258 541.368L689.192 538.588C689.192 538.588 686.894 548.035 677.141 545.784C675.256 545.385 673.54 544.402 672.232 542.972C670.925 541.541 670.09 539.733 669.845 537.801C669.615 536.182 669.768 534.531 670.29 532.983C670.812 531.436 671.689 530.035 672.849 528.896C675.5 526.214 680.34 524.382 687.441 527.592L693.63 502.217L682.626 499.474L678.978 514.345C678.978 514.345 662.574 514.529 658.391 531.725C654.378 548.182 668.034 555.636 674.284 557.186C679.075 558.379 695.625 561.269 700.258 541.368Z" fill="#EBEBEB"/>
<path d="M683.759 494.22L694.916 497.001L697.485 486.455L686.327 483.674L683.759 494.22Z" fill="#EBEBEB"/>
<path d="M623.528 270.116H648.93L646.693 281.641H600.935L602.747 272.478L630.289 250.645C637.099 245.135 639.178 241.912 639.178 237.89C639.178 233.868 636.15 231.162 630.289 231.162C627.815 231.199 625.38 231.792 623.16 232.895C620.939 233.999 618.989 235.587 617.448 237.546L608.036 230.645C612.9 223.917 621.935 219.465 632.356 219.465C645.136 219.465 653.502 226.365 653.502 235.885C653.502 243.13 650.231 249.243 639.604 257.545L623.528 270.116Z" fill="#263238"/>
<path d="M709.451 268.812H699.528L697.023 281.641H683.38L685.97 268.812H653.417L655.229 259.292L690.809 220.51H706.082L672.934 257.275H688.815L691.065 245.836H704.1L701.851 257.275H711.785L709.451 268.812Z" fill="#263238"/>
<path d="M749.335 208.112H761.945L717.573 290.374H705L749.335 208.112Z" fill="#263238"/>
<path d="M806.925 220.51L805.113 229.686L772.828 281.641H757.288L788.272 232.035H768.682L766.688 241.998H754.26L758.504 220.51H806.925Z" fill="#263238"/>
<path d="M595.28 329.869L598.819 323.08C601.973 325.118 605.631 326.214 609.374 326.241C612.827 326.241 614.821 325.146 614.821 323.4C614.821 319.082 599.403 321.469 599.403 311.383C599.403 304.458 605.252 299.919 614.639 299.919C618.62 299.785 622.564 300.737 626.057 302.674L622.798 309.414C620.182 307.785 617.165 306.933 614.092 306.954C610.371 306.954 608.377 308.332 608.377 310.079C608.377 314.482 623.796 311.961 623.796 321.862C623.796 328.738 617.813 333.276 608.523 333.276C603.075 333.301 598.138 331.837 595.28 329.869Z" fill="#263238"/>
<path d="M639.786 307.582L638.752 312.994H652.846L651.496 319.771H637.39L636.247 325.651H652.894L651.435 332.661H625.96L632.356 300.62H657.199L655.788 307.643L639.786 307.582Z" fill="#263238"/>
<path d="M680.352 323.031L685.751 332.661H676.363L671.645 324.138H667.122L665.444 332.661H656.469L662.805 300.62H676.363C684.474 300.62 689.143 304.433 689.143 310.854C689.207 313.579 688.38 316.25 686.79 318.451C685.201 320.653 682.938 322.263 680.352 323.031ZM675.099 307.717H670.38L668.52 317.114H673.87C677.822 317.114 680.133 315.195 680.133 311.665C680.084 308.959 678.175 307.717 675.099 307.717Z" fill="#263238"/>
<path d="M728.481 300.62L708.648 332.661H699.808L692.536 300.62H701.741L706.277 321.53L719.239 300.62H728.481Z" fill="#263238"/>
<path d="M730.378 300.62H739.364L732.968 332.661H723.994L730.378 300.62Z" fill="#263238"/>
<path d="M740.763 319.181C740.763 308.037 748.873 299.919 760.656 299.919C766.505 299.919 771.272 302.084 773.534 305.971L767.016 311.198C766.288 310.005 765.255 309.033 764.027 308.383C762.799 307.734 761.42 307.432 760.036 307.508C753.871 307.508 749.785 312.317 749.785 318.639C749.785 322.957 752.692 325.847 757.543 325.847C759.025 325.854 760.489 325.527 761.829 324.888C763.169 324.25 764.351 323.317 765.289 322.157L770.591 327.422C767.016 331.788 762.347 333.387 756.68 333.387C746.976 333.301 740.763 327.569 740.763 319.181Z" fill="#263238"/>
<path d="M786.63 307.582L785.584 312.994H799.678L798.364 319.771H784.222L783.092 325.651H799.726L798.279 332.661H772.853L779.176 300.62H804.019L802.62 307.643L786.63 307.582Z" fill="#263238"/>
<path d="M629.79 202.417H612.073C612.073 177.472 622.057 151.987 639.458 132.43C657.771 111.877 681.543 100.561 706.338 100.561C757.008 100.561 792.406 137.977 792.406 191.581H774.725C774.725 147.879 747.256 118.519 706.374 118.519C666.295 118.482 629.79 158.481 629.79 202.417Z" fill="#5ED8FF"/>
<path d="M639.506 197.435C642.34 197.435 644.638 197.718 644.626 197.977C644.613 198.235 642.327 198.432 639.506 198.432C636.685 198.432 634.375 198.198 634.375 197.89C634.375 197.583 636.685 197.386 639.506 197.435Z" fill="#263238"/>
<path d="M651.739 158.149C654.171 159.724 655.813 161.335 655.545 161.765C655.278 162.196 653.113 161.322 650.681 159.834C648.249 158.346 646.632 156.71 646.887 156.218C647.143 155.726 649.368 156.587 651.739 158.149Z" fill="#263238"/>
<path d="M682.382 131.077C683.538 133.697 684.109 135.997 683.598 136.194C683.088 136.39 681.787 134.484 680.546 131.913C679.306 129.343 678.734 126.993 679.33 126.796C679.926 126.6 681.239 128.42 682.382 131.077Z" fill="#263238"/>
<path d="M722.754 127.854C722.048 130.634 721.088 132.774 720.613 132.676C720.139 132.577 720.236 130.216 720.844 127.399C721.452 124.582 722.401 122.479 722.985 122.59C723.568 122.7 723.459 125.087 722.754 127.854Z" fill="#263238"/>
<path d="M755.732 151.298C753.372 152.872 751.244 153.832 750.965 153.438C750.685 153.045 752.327 151.347 754.613 149.662C756.899 147.977 759.039 147.03 759.38 147.522C759.72 148.014 758.091 149.711 755.732 151.298Z" fill="#263238"/>
<path d="M766.59 189.92C763.769 189.92 761.471 189.699 761.471 189.453C761.471 189.207 763.757 188.961 766.59 188.924C769.424 188.887 771.71 189.096 771.722 189.391C771.734 189.686 769.448 189.92 766.59 189.92Z" fill="#263238"/>
<path d="M701.534 195.258C700.652 195.264 699.794 194.965 699.102 194.41L669.323 171.039C668.497 170.387 667.961 169.43 667.834 168.378C667.706 167.326 667.997 166.266 668.642 165.431C669.287 164.596 670.233 164.054 671.273 163.925C672.313 163.796 673.361 164.089 674.187 164.742L701.352 186.046L738.866 151.2C739.632 150.48 740.649 150.098 741.693 150.137C742.737 150.177 743.724 150.634 744.435 151.409C745.146 152.183 745.524 153.212 745.485 154.269C745.446 155.325 744.994 156.323 744.228 157.042L704.258 194.188C703.518 194.883 702.544 195.265 701.534 195.258Z" fill="#5ED8FF"/>
<path d="M721.732 74.2139H687.587C687.056 74.2139 686.626 74.6489 686.626 75.1856V87.6947C686.626 88.2314 687.056 88.6664 687.587 88.6664H721.732C722.263 88.6664 722.693 88.2314 722.693 87.6947V75.1856C722.693 74.6489 722.263 74.2139 721.732 74.2139Z" fill="#5ED8FF"/>
<path d="M713.974 81.4463H695.333V98.5433H713.974V81.4463Z" fill="#5ED8FF"/>
<path d="M627.712 118.444L613.709 135.986C613.164 136.668 613.27 137.667 613.944 138.217L623.518 146.037C624.192 146.588 625.18 146.481 625.724 145.799L639.727 128.258C640.271 127.576 640.166 126.577 639.492 126.027L629.917 118.207C629.243 117.656 628.256 117.763 627.712 118.444Z" fill="#5ED8FF"/>
<path d="M721.732 88.6664C721.732 88.8755 714.084 89.0354 704.708 89.0354C695.333 89.0354 687.684 88.8755 687.684 88.6664C687.684 88.4573 695.321 88.2974 704.708 88.2974C714.096 88.2974 721.732 88.4696 721.732 88.6664Z" fill="#263238"/>
<path d="M627.395 142.786C627.2 143.008 624.622 141.015 621.436 138.592C618.251 136.169 615.66 134.201 615.819 133.955C615.977 133.709 618.834 135.308 622.057 137.756C625.279 140.203 627.577 142.577 627.395 142.786Z" fill="#263238"/>
<path d="M630.362 138.371C630.167 138.592 627.589 136.6 624.404 134.176C621.218 131.753 618.615 129.785 618.773 129.539C618.932 129.293 621.801 130.892 625.024 133.352C628.246 135.812 630.544 138.162 630.362 138.371Z" fill="#263238"/>
<path d="M633.998 134.668C633.815 134.89 631.237 132.897 628.052 130.474C624.866 128.051 622.312 126.083 622.421 125.837C622.531 125.591 625.449 127.19 628.66 129.65C631.87 132.11 634.192 134.459 633.998 134.668Z" fill="#263238"/>
<path d="M637.524 130.253C637.342 130.474 634.752 128.482 631.566 126.058C628.38 123.635 625.79 121.667 625.96 121.421C626.13 121.175 628.988 122.774 632.198 125.234C635.408 127.694 637.707 130.044 637.524 130.253Z" fill="#263238"/>
<path d="M790.372 123.989L775.299 107.379C774.713 106.734 773.721 106.691 773.083 107.283L764.017 115.701C763.379 116.294 763.336 117.297 763.922 117.943L778.995 134.552C779.581 135.198 780.573 135.241 781.211 134.648L790.277 126.231C790.915 125.638 790.958 124.634 790.372 123.989Z" fill="#5ED8FF"/>
<path d="M766.615 120.081C766.432 119.859 768.755 117.621 771.6 114.742C774.446 111.864 776.744 109.613 776.963 109.822C777.182 110.032 775.2 112.651 772.318 115.505C769.436 118.359 766.785 120.29 766.615 120.081Z" fill="#263238"/>
<path d="M770.494 123.697C770.299 123.475 772.634 121.237 775.467 118.359C778.3 115.48 780.623 113.23 780.842 113.439C781.061 113.648 779.067 116.268 776.197 119.121C773.327 121.975 770.664 123.906 770.494 123.697Z" fill="#263238"/>
<path d="M773.57 127.891C773.376 127.67 775.71 125.431 778.544 122.553C781.377 119.675 783.7 117.424 783.918 117.633C784.137 117.842 782.143 120.45 779.261 123.303C776.379 126.157 773.74 128.1 773.57 127.891Z" fill="#263238"/>
<path d="M777.364 132.11C777.17 131.889 779.504 129.65 782.338 126.772C785.171 123.894 787.493 121.643 787.712 121.852C787.931 122.061 785.937 124.681 783.055 127.534C780.173 130.388 777.534 132.282 777.364 132.11Z" fill="#263238"/>
<path d="M691.417 88.6541C691.138 88.6541 690.907 85.4561 690.907 81.5324C690.907 77.6087 691.138 74.3984 691.417 74.3984C691.697 74.3984 691.94 77.5964 691.94 81.5324C691.94 85.4684 691.709 88.6541 691.417 88.6541Z" fill="#263238"/>
<path d="M698.105 88.6541C697.826 88.6541 697.595 85.4561 697.595 81.5324C697.595 77.6087 697.826 74.3984 698.105 74.3984C698.385 74.3984 698.616 77.5964 698.616 81.5324C698.616 85.4684 698.385 88.6541 698.105 88.6541Z" fill="#263238"/>
<path d="M704.781 88.6541C704.501 88.6541 704.27 85.4561 704.27 81.5324C704.27 77.6087 704.501 74.3984 704.781 74.3984C705.061 74.3984 705.292 77.5964 705.292 81.5324C705.292 85.4684 705.073 88.6541 704.781 88.6541Z" fill="#263238"/>
<path d="M711.469 88.6541C711.177 88.6541 710.958 85.4561 710.958 81.5324C710.958 77.6087 711.177 74.3984 711.469 74.3984C711.761 74.3984 711.98 77.5964 711.98 81.5324C711.98 85.4684 711.749 88.6541 711.469 88.6541Z" fill="#263238"/>
<path d="M718.145 88.6541C717.865 88.6541 717.634 85.4561 717.634 81.5324C717.634 77.6087 717.865 74.3984 718.145 74.3984C718.425 74.3984 718.656 77.5964 718.656 81.5324C718.656 85.4684 718.376 88.6541 718.145 88.6541Z" fill="#263238"/>
<path d="M708.762 196.288C712.248 192.762 712.248 187.046 708.762 183.52C705.277 179.994 699.625 179.994 696.14 183.52C692.654 187.046 692.654 192.762 696.14 196.288C699.625 199.813 705.277 199.814 708.762 196.288Z" fill="#5ED8FF"/>
<path d="M711.372 189.92C711.287 189.92 711.299 189.121 710.922 187.755C710.381 185.85 709.231 184.18 707.651 183.007C706.385 182.056 704.882 181.48 703.31 181.342C701.739 181.204 700.161 181.511 698.751 182.228C697.342 182.945 696.158 184.044 695.33 185.402C694.503 186.76 694.064 188.325 694.064 189.92C694.064 191.515 694.503 193.08 695.33 194.438C696.158 195.796 697.342 196.895 698.751 197.612C700.161 198.329 701.739 198.636 703.31 198.498C704.882 198.36 706.385 197.784 707.651 196.833C709.228 195.657 710.378 193.988 710.922 192.085C711.299 190.719 711.287 189.92 711.372 189.92C711.457 189.92 711.372 190.117 711.372 190.498C711.391 191.061 711.334 191.624 711.202 192.171C710.765 194.224 709.629 196.057 707.991 197.349C706.768 198.321 705.321 198.963 703.786 199.217C702.251 199.471 700.677 199.328 699.212 198.801C697.397 198.15 695.827 196.947 694.716 195.357C693.605 193.767 693.009 191.867 693.009 189.92C693.009 187.973 693.605 186.074 694.716 184.483C695.827 182.893 697.397 181.69 699.212 181.039C700.677 180.514 702.249 180.371 703.784 180.622C705.318 180.874 706.765 181.512 707.991 182.479C709.628 183.776 710.764 185.613 711.202 187.669C711.334 188.216 711.391 188.779 711.372 189.342C711.433 189.699 711.408 189.92 711.372 189.92Z" fill="#263238"/>
<path d="M1016.62 220.842L1031.87 218.382C1041.87 226.539 1054.52 230.619 1067.33 229.821C1080.15 229.022 1092.21 223.402 1101.14 214.066C1110.07 204.73 1115.22 192.354 1115.59 179.369C1115.95 166.384 1111.5 153.731 1103.11 143.897C1094.72 134.063 1083 127.759 1070.25 126.225C1057.49 124.691 1044.64 128.037 1034.2 135.607C1023.76 143.176 1016.5 154.42 1013.85 167.129C1011.19 179.838 1013.33 193.092 1019.85 204.286L1016.62 220.842Z" fill="white"/>
<path d="M1016.62 220.842C1016.62 220.842 1016.62 220.498 1016.79 219.797L1017.38 216.648C1017.9 213.819 1018.68 209.674 1019.69 204.262C1019.69 204.244 1019.7 204.227 1019.71 204.212C1019.72 204.197 1019.73 204.185 1019.75 204.176C1019.76 204.166 1019.78 204.16 1019.79 204.158C1019.81 204.156 1019.83 204.158 1019.85 204.163C1019.86 204.157 1019.87 204.154 1019.88 204.154C1019.9 204.154 1019.91 204.157 1019.92 204.163L1019.7 204.336C1015.35 196.906 1012.89 188.5 1012.54 179.871C1012.43 177.186 1012.53 174.496 1012.84 171.827C1013.2 168.97 1013.78 166.145 1014.57 163.377C1017.44 153.342 1023.23 144.41 1031.17 137.739C1039.12 131.068 1048.87 126.964 1059.15 125.96C1067.21 125.19 1075.35 126.356 1082.88 129.363C1090.42 132.37 1097.15 137.134 1102.52 143.266L1104.59 145.726C1105.23 146.587 1105.81 147.485 1106.44 148.346C1107.64 150.096 1108.73 151.92 1109.71 153.807C1110.24 154.717 1110.58 155.726 1111.03 156.673C1111.48 157.62 1111.95 158.567 1112.25 159.576C1112.97 161.528 1113.57 163.525 1114.04 165.554C1115.91 173.438 1115.97 181.651 1114.22 189.563C1111.88 199.852 1106.5 209.18 1098.8 216.313C1091.11 223.446 1081.45 228.049 1071.11 229.514C1068.27 229.904 1065.41 230.072 1062.54 230.018C1059.88 229.89 1057.23 229.603 1054.6 229.157C1046.23 227.581 1038.39 223.911 1031.79 218.481H1031.9L1020.49 220.215L1017.58 220.645L1016.62 220.781L1017.63 220.596L1020.56 220.104L1031.85 218.21H1031.96C1038.55 223.551 1046.36 227.148 1054.67 228.677C1057.28 229.117 1059.91 229.392 1062.55 229.501C1065.4 229.548 1068.25 229.371 1071.06 228.973C1081.28 227.478 1090.81 222.896 1098.4 215.829C1106 208.761 1111.3 199.537 1113.62 189.367C1115.34 181.545 1115.27 173.43 1113.42 165.64C1112.94 163.639 1112.35 161.668 1111.65 159.736C1111.35 158.74 1110.84 157.829 1110.44 156.87C1110.04 155.911 1109.65 154.939 1109.13 154.041C1108.16 152.177 1107.08 150.377 1105.89 148.654C1105.28 147.793 1104.67 146.907 1104.07 146.058L1102.02 143.598C1096.71 137.54 1090.07 132.832 1082.63 129.856C1075.18 126.879 1067.15 125.717 1059.18 126.464C1052.13 127.169 1045.3 129.347 1039.12 132.859C1032.93 136.371 1027.54 141.142 1023.28 146.87C1019.56 151.881 1016.78 157.538 1015.08 163.561C1014.29 166.301 1013.71 169.097 1013.34 171.925C1013.02 174.573 1012.91 177.242 1013 179.908C1013.3 188.476 1015.68 196.838 1019.94 204.249C1019.97 204.275 1019.98 204.308 1019.98 204.342C1019.98 204.376 1019.97 204.409 1019.94 204.434C1019.92 204.454 1019.89 204.465 1019.86 204.465C1019.83 204.465 1019.8 204.454 1019.77 204.434L1019.99 204.36C1018.92 209.711 1018.1 213.819 1017.56 216.66C1017.28 218.05 1017.06 219.12 1016.92 219.834C1016.77 220.547 1016.62 220.842 1016.62 220.842Z" fill="#263238"/>
<path d="M1079.72 179.44C1079.72 178.396 1080.02 177.374 1080.6 176.504C1081.17 175.635 1081.98 174.956 1082.94 174.555C1083.89 174.155 1084.94 174.049 1085.95 174.252C1086.97 174.455 1087.9 174.958 1088.63 175.697C1089.36 176.436 1089.86 177.377 1090.06 178.402C1090.26 179.426 1090.15 180.488 1089.76 181.453C1089.36 182.418 1088.69 183.242 1087.83 183.821C1086.97 184.399 1085.96 184.707 1084.93 184.705C1083.55 184.702 1082.23 184.146 1081.25 183.159C1080.28 182.173 1079.73 180.836 1079.72 179.44Z" fill="#263238"/>
<path d="M1058.86 179.44C1058.85 178.396 1059.16 177.375 1059.73 176.505C1060.3 175.636 1061.11 174.958 1062.07 174.557C1063.02 174.155 1064.07 174.049 1065.08 174.251C1066.1 174.453 1067.03 174.955 1067.76 175.693C1068.49 176.43 1068.99 177.37 1069.19 178.394C1069.39 179.418 1069.29 180.48 1068.89 181.445C1068.5 182.409 1067.83 183.234 1066.97 183.815C1066.11 184.395 1065.1 184.705 1064.07 184.705C1062.69 184.705 1061.37 184.151 1060.39 183.164C1059.41 182.177 1058.86 180.838 1058.86 179.44Z" fill="#263238"/>
<path d="M1038.05 182.073C1037.53 181.169 1037.29 180.131 1037.36 179.089C1037.43 178.048 1037.8 177.05 1038.43 176.222C1039.06 175.394 1039.91 174.773 1040.89 174.437C1041.87 174.102 1042.92 174.067 1043.92 174.337C1044.91 174.607 1045.81 175.17 1046.49 175.955C1047.17 176.739 1047.61 177.71 1047.74 178.745C1047.87 179.78 1047.7 180.832 1047.25 181.768C1046.79 182.704 1046.07 183.482 1045.18 184.004C1043.98 184.7 1042.55 184.888 1041.22 184.526C1039.88 184.164 1038.74 183.282 1038.05 182.073Z" fill="#263238"/>
<path d="M673.737 368.27C670.539 366.732 665.152 363.522 661.82 362.268C658.526 360.842 654.852 360.591 651.399 361.554C649.441 362.218 647.483 363.805 647.471 365.896L660.543 375.65L673.737 372.132V368.27Z" fill="#FF9A6C"/>
<path d="M659.436 368.135C659.436 368.135 635.956 362.981 632.04 360.951C628.124 358.922 607.72 348.59 604.303 348.59C600.886 348.59 597.968 349.525 597.348 352.969L601.81 356.474L602.382 358.27L610.018 362.292L611.368 364.826L630.824 375.33C630.824 375.33 651.228 385.81 654.633 386.4C658.038 386.991 675.038 388.43 682.309 394.69L711.493 382.563C711.493 382.563 703.067 370.459 696.573 367.47C690.785 364.814 681.069 364.814 674.272 367.63L659.436 368.135Z" fill="#FFBF9D"/>
<path d="M678.965 387.95C678.965 387.95 716.114 469.893 722.097 486.35C722.097 486.35 763.623 479.437 765.046 456.129L711.542 382.329L678.965 387.95Z" fill="#FFBF9D"/>
<path d="M644.468 369.992C644.468 369.992 644.322 369.992 644.066 369.992C643.686 369.953 643.311 369.875 642.948 369.758C641.616 369.348 640.322 368.821 639.081 368.184C637.5 367.409 635.664 366.388 633.645 365.244C632.636 364.678 631.578 364.076 630.471 363.498C629.365 362.92 628.161 362.415 626.933 361.874C624.659 360.832 622.309 359.969 619.904 359.291C617.703 358.738 615.588 358.319 613.995 358.861C613.377 359.111 612.816 359.487 612.348 359.965C611.879 360.443 611.513 361.013 611.271 361.64C611.091 362.119 610.884 362.588 610.651 363.043C610.651 363.043 610.651 362.895 610.711 362.649C610.793 362.272 610.902 361.902 611.04 361.542C611.255 360.968 611.545 360.426 611.903 359.931C612.376 359.253 613.036 358.731 613.8 358.43C614.743 358.111 615.744 358.01 616.731 358.135C617.834 358.245 618.927 358.438 620.002 358.713C622.458 359.368 624.857 360.223 627.176 361.271C628.392 361.813 629.608 362.317 630.739 362.92C631.87 363.522 632.916 364.15 633.925 364.728C635.931 365.896 637.731 366.954 639.275 367.766C640.472 368.427 641.711 369.006 642.984 369.5C643.932 369.857 644.468 369.931 644.468 369.992Z" fill="#FF9A6C"/>
<path d="M622.069 358.209C620.924 357.975 619.816 357.586 618.773 357.052C616.265 355.855 613.687 354.816 611.052 353.941C609.61 353.527 608.103 353.398 606.613 353.559C606.019 353.577 605.434 353.718 604.895 353.971C604.356 354.225 603.873 354.587 603.476 355.035C603.001 355.702 602.688 356.473 602.564 357.286C602.553 357.602 602.492 357.913 602.382 358.209C602.325 357.896 602.325 357.575 602.382 357.261C602.427 356.384 602.704 355.534 603.184 354.801C603.557 354.289 604.039 353.868 604.595 353.571C605.231 353.266 605.913 353.07 606.613 352.993C608.182 352.794 609.774 352.915 611.295 353.35C613.967 354.217 616.556 355.329 619.029 356.671C620.069 357.128 621.083 357.641 622.069 358.209Z" fill="#FF9A6C"/>
<path d="M680.68 365.81C680.68 365.81 680.352 366.007 679.732 366.228C678.842 366.553 677.937 366.832 677.02 367.065C674.001 367.859 670.907 368.325 667.79 368.454C664.675 368.591 661.553 368.401 658.476 367.889C657.26 367.68 656.36 367.471 655.716 367.286C655.371 367.234 655.038 367.121 654.731 366.954C654.731 366.855 656.19 367.138 658.549 367.434C661.606 367.816 664.689 367.944 667.766 367.815C670.846 367.654 673.908 367.243 676.923 366.585C679.172 366.142 680.595 365.724 680.68 365.81Z" fill="#FF9A6C"/>
<path d="M1026.56 317.164L972.52 305.847L959.144 295.7L887.765 309.624C886.622 311.739 875.058 328.074 875.058 328.074L846.944 337.729C834.995 340.905 824.33 347.787 816.446 357.409C808.95 366.774 802.809 377.169 798.206 388.282C785.56 418.306 767.308 452.992 767.308 452.992L755.865 434.346L707.639 457.322C707.639 457.322 735.886 514.923 745.237 523.152C755.634 532.291 779.541 533.348 796.066 516.301C806.025 506.018 834.808 465.379 840.803 455.206L849.704 497.74L857.888 546.288L844.658 579.707H1037.76L1029.77 548.121C1029.77 548.121 1037.64 465.797 1039.81 450.471C1044.93 414.321 1026.56 317.164 1026.56 317.164Z" fill="#5ED8FF"/>
<path d="M1026.56 317.164C1026.56 317.164 1065.23 328.135 1073.74 367.015C1078.9 390.57 1096.41 457.716 1102.57 512.992C1106.22 545.857 1106.12 576.226 1106.22 579.707H1046.88L1021.73 328.135L1026.56 317.164Z" fill="#5ED8FF"/>
<path d="M927.382 350.546C927.382 350.546 927.382 350.693 927.224 350.952L926.677 352.083C926.19 353.079 925.461 354.543 924.67 356.401C922.956 360.091 920.937 365.564 917.678 371.677L917.52 371.985L917.253 371.751C913.24 368.295 908.887 364.137 904.388 359.648C896.423 351.653 889.443 344.211 884.287 338.934L878.146 332.698L876.456 331.013C876.25 330.827 876.063 330.621 875.897 330.398C876.132 330.548 876.348 330.726 876.541 330.927L878.292 332.526C879.8 333.928 881.94 336.007 884.579 338.615C889.82 343.818 896.86 351.21 904.801 359.193C909.3 363.682 913.629 367.803 917.593 371.32L917.156 371.394C920.439 365.367 922.53 359.918 924.33 356.253C925.218 354.396 925.959 352.969 926.494 351.997C926.738 351.567 926.944 351.198 927.115 350.915C927.19 350.782 927.28 350.659 927.382 350.546Z" fill="black"/>
<path d="M973.274 307.237C973.27 307.528 973.233 307.817 973.164 308.098C973.043 308.713 972.897 309.525 972.715 310.558C972.277 312.674 971.499 315.724 970.501 319.439C968.398 326.819 964.993 337.016 960.773 348.024C958.548 353.854 956.359 359.365 954.316 364.248L954.158 364.629L953.854 364.359C948.346 359.439 943.409 355.564 940.065 352.686C938.387 351.247 937.074 350.091 936.186 349.279L935.201 348.344C934.97 348.123 934.86 348.012 934.873 348C935.013 348.074 935.143 348.164 935.262 348.27L936.307 349.144L940.284 352.415C943.701 355.22 948.674 359.02 954.243 363.916L953.781 364.026C955.788 359.106 957.964 353.621 960.178 347.803C964.348 336.733 967.814 326.708 970.015 319.316C971.109 315.626 971.912 312.6 972.447 310.497C972.678 309.501 972.873 308.701 973.019 308.037C973.084 307.764 973.169 307.497 973.274 307.237Z" fill="black"/>
<path d="M848.184 492.291C848.133 492.207 848.096 492.116 848.075 492.02L847.819 491.184C847.6 490.364 847.296 489.282 846.907 487.937C846.494 486.535 846.092 484.8 845.606 482.783C845.12 480.766 844.597 478.453 844.074 475.895C841.384 462.55 839.491 449.053 838.407 435.477C837.033 419.573 836.729 405.121 836.802 394.678C836.802 389.451 836.936 385.219 837.082 382.304C837.155 380.878 837.204 379.758 837.24 378.934C837.24 378.59 837.24 378.295 837.301 378.061C837.288 377.963 837.288 377.864 837.301 377.766C837.311 377.868 837.311 377.971 837.301 378.073V378.946C837.301 379.771 837.301 380.89 837.301 382.304C837.301 385.232 837.204 389.451 837.228 394.678C837.228 405.109 837.641 419.549 839.015 435.416C840.109 448.971 841.936 462.456 844.487 475.809C844.986 478.367 845.448 480.729 845.922 482.697C846.396 484.665 846.749 486.473 847.138 487.875L847.941 491.147L848.123 491.996C848.184 492.193 848.196 492.291 848.184 492.291Z" fill="black"/>
<path d="M1029.77 360.287C1029.84 360.394 1029.9 360.509 1029.94 360.632C1030.05 360.89 1030.19 361.222 1030.37 361.64C1030.75 362.575 1031.28 363.891 1031.96 365.552C1032.3 366.413 1032.7 367.348 1033.09 368.393L1034.24 371.837C1034.66 373.067 1035.1 374.408 1035.57 375.81C1036.04 377.212 1036.36 378.75 1036.79 380.336C1040.43 392.993 1042.26 411.308 1041.21 431.344C1040.17 451.381 1037.83 469.474 1036.35 482.463C1035.61 488.958 1035 494.234 1034.57 497.924C1034.37 499.708 1034.2 501.122 1034.07 502.119L1033.93 503.213C1033.92 503.339 1033.89 503.463 1033.86 503.582C1033.84 503.46 1033.84 503.336 1033.86 503.213L1033.94 502.106C1034.04 501.098 1034.17 499.646 1034.33 497.9C1034.67 494.21 1035.2 488.945 1035.9 482.414C1037.22 469.351 1039.46 451.32 1040.53 431.32C1041.6 411.32 1039.8 393.104 1036.31 380.447L1035.1 375.921L1033.88 371.96C1033.49 370.73 1033.13 369.561 1032.78 368.504C1032.44 367.446 1032.03 366.499 1031.7 365.638C1031.07 363.953 1030.58 362.637 1030.22 361.689C1030.07 361.259 1029.95 360.927 1029.85 360.656C1029.81 360.538 1029.78 360.414 1029.77 360.287Z" fill="black"/>
<path d="M767.624 494.874C767.454 494.874 767.247 485.501 767.174 473.964C767.101 462.427 767.174 453.054 767.356 453.054C767.539 453.054 767.733 462.427 767.806 473.964C767.879 485.501 767.806 494.874 767.624 494.874Z" fill="black"/>
<path d="M943.093 551.638V551.122C943.093 550.753 943.19 550.261 943.263 549.621C943.433 548.268 943.664 546.337 943.968 543.852C944.126 542.622 944.297 541.208 944.491 539.695C944.686 538.182 944.832 536.509 945.014 534.775C945.367 531.208 945.853 527.161 946.23 522.66C946.412 520.421 946.595 518.059 946.802 515.612C947.008 513.164 947.106 510.606 947.264 507.961C947.628 502.672 947.787 497.002 947.993 491.049C948.261 479.13 948.224 466.018 947.616 452.279C947.008 438.54 945.768 425.477 944.394 413.632C943.628 407.716 942.959 402.095 942.096 396.867C941.694 394.248 941.342 391.714 940.88 389.291C940.418 386.868 940.041 384.543 939.664 382.317C938.922 377.876 938.071 373.891 937.378 370.373C937.025 368.614 936.709 366.978 936.405 365.453C936.101 363.928 935.772 362.587 935.493 361.357L934.277 355.687C934.155 355.06 934.046 354.568 933.973 354.211C933.9 353.854 933.888 353.694 933.888 353.694C933.949 353.854 933.998 354.019 934.034 354.186L934.411 355.65L935.76 361.308L936.721 365.392C937.037 366.892 937.378 368.516 937.755 370.312C938.472 373.817 939.36 377.802 940.126 382.243C940.531 384.465 940.936 386.79 941.342 389.217C941.78 391.677 942.132 394.137 942.558 396.794C943.433 402.033 944.126 407.655 944.917 413.571C946.315 425.428 947.507 438.503 948.188 452.254C948.869 466.006 948.82 479.142 948.516 491.073C948.285 497.039 948.115 502.709 947.726 507.998C947.556 510.642 947.434 513.201 947.227 515.661C947.02 518.121 946.802 520.47 946.607 522.721C946.267 527.223 945.744 531.331 945.391 534.824C945.184 536.608 944.99 538.268 944.82 539.744C944.649 541.22 944.418 542.647 944.236 543.902C943.883 546.362 943.604 548.305 943.421 549.646L943.19 551.146C943.172 551.313 943.139 551.477 943.093 551.638Z" fill="black"/>
<path d="M968.799 418.872H969.042L969.808 418.786L972.787 418.442L984.181 417.212L1024.74 412.956H1025.04V413.263C1025.34 425.674 1025.71 439.721 1026.08 454.616V454.751L1026 454.837L1021.14 460.163L1003.41 479.327L1003.25 479.499L1003.04 479.388L973.164 464.382L973.031 464.321V464.21C971.73 450.495 970.599 439.155 969.906 431.197C969.541 427.285 969.261 424.21 969.067 422.082C968.981 421.062 968.908 420.274 968.86 419.696C968.811 419.118 968.86 418.909 968.86 418.909C968.86 418.909 968.86 419.204 968.969 419.745C969.079 420.287 969.127 421.135 969.249 422.205C969.468 424.358 969.796 427.445 970.222 431.381C971.036 439.278 972.192 450.557 973.602 464.198L973.456 463.989L1003.37 478.908L1003.02 478.97L1020.71 459.733L1025.57 454.419L1025.49 454.641C1025.14 439.745 1024.8 425.711 1024.5 413.288L1024.82 413.559L984.388 417.47L972.921 418.552L969.869 418.823L969.079 418.897L968.799 418.872Z" fill="black"/>
<path d="M1025.11 427.531C1024.42 427.725 1023.72 427.861 1023.01 427.937C1021.65 428.159 1019.68 428.442 1017.23 428.761C1012.37 429.389 1005.57 430.114 998.092 430.84L978.928 432.734L973.128 433.349C972.424 433.464 971.713 433.517 971 433.509C971.689 433.316 972.393 433.18 973.104 433.103C974.466 432.882 976.436 432.599 978.88 432.279C983.744 431.652 990.541 430.926 998.032 430.2L1017.18 428.306L1022.98 427.691C1023.69 427.577 1024.4 427.523 1025.11 427.531Z" fill="black"/>
<g opacity="0.3">
<path d="M1036.86 475.907L1038.9 501.036C1043.41 479.511 1050.5 456.375 1049.4 434.407C1048.29 412.439 1046.25 391.419 1034.01 371.529C1039.33 386.504 1041.77 402.369 1041.2 418.269C1040.08 443.976 1036.86 475.907 1036.86 475.907Z" fill="black"/>
</g>
<path d="M759.574 429.13C758.917 427.616 757.755 426.384 756.291 425.649C754.588 425.059 752.74 425.895 751.123 426.707L707.006 448.921C704.1 450.385 700.926 452.119 699.856 455.194C698.458 459.13 701.072 463.287 703.504 466.67C707.566 472.316 712.43 478.466 719.312 479.265L757.264 452.943C761.897 452.254 764.779 447.027 764.56 442.291C764.341 437.556 761.933 433.239 759.574 429.13Z" fill="#5ED8FF"/>
<path d="M764.365 445.219C764.253 445.377 764.122 445.522 763.976 445.649L762.76 446.793C761.714 447.777 760.17 449.167 758.236 450.84C754.357 454.198 748.849 458.663 742.428 463.214C736.008 467.765 730.135 471.516 725.672 474.05C723.459 475.342 721.647 476.35 720.382 477.014L718.923 477.765C718.583 477.937 718.4 478.011 718.388 477.986C718.529 477.852 718.689 477.74 718.862 477.654L720.261 476.793L725.441 473.656C729.806 471 735.753 467.187 742.1 462.648C748.448 458.109 753.993 453.718 757.908 450.459L762.565 446.559L763.781 445.514C764.195 445.317 764.353 445.194 764.365 445.219Z" fill="black"/>
<g opacity="0.3">
<path d="M972.702 310.054C967.51 327.495 960.238 347.225 954.098 364.174C948.869 359.685 941.549 353.744 936.308 349.242C940.818 358.293 946.233 366.854 952.468 374.789C953.198 375.711 954.171 376.72 955.301 376.499C956.432 376.277 956.943 375.096 957.332 374.039L966.902 348.418C971.377 336.438 975.694 322.465 972.702 310.054Z" fill="black"/>
</g>
<path d="M890.622 120.302C906.43 115.702 921.217 120.302 935.797 127.953C950.377 135.603 962.135 148.235 969.748 162.934C977.773 178.419 981.324 196.464 978.418 213.696C975.511 230.928 965.881 247.164 951.459 256.746C931.748 269.882 904.582 269.193 884.287 257.029C863.992 244.864 850.628 222.441 847.09 198.837C844.658 182.577 846.628 165.431 854.13 150.867C861.633 136.304 874.9 124.496 890.61 120.29" fill="#263238"/>
<path d="M942.521 170.351C939.469 164.41 939.603 157.362 937.937 150.867C934.289 136.587 921.399 126.267 907.391 122.147C894.368 118.297 879.301 121.188 864.831 127.805C854.933 132.344 845.922 139.305 840.012 148.53C836.147 154.714 833.799 161.742 833.165 169.03C832.53 176.317 833.627 183.653 836.364 190.424L908.583 171.212C916.098 176.132 923.795 181.212 932.489 183.512C935.019 184.303 937.706 184.426 940.296 183.868C941.581 183.561 942.752 182.886 943.668 181.924C944.584 180.963 945.208 179.754 945.464 178.444C945.768 175.517 943.847 172.946 942.521 170.351Z" fill="#263238"/>
<path d="M959.752 299.882L941.111 167.263C940.284 160.99 937.463 154.594 931.225 154.89L865.561 148.494C844.986 149.453 835.331 176.784 837.155 197.484C839.186 220.535 842.554 248.591 847.795 265.221C858.338 298.64 884.956 298.984 884.956 298.984C884.956 298.984 886.573 305.626 888.604 318.049L931.164 346.684L959.752 299.882Z" fill="#FFBF9D"/>
<path d="M853.024 222.712C853.187 223.859 853.787 224.896 854.696 225.601C855.605 226.307 856.75 226.625 857.888 226.488C858.447 226.448 858.993 226.295 859.493 226.038C859.992 225.781 860.436 225.425 860.798 224.992C861.159 224.558 861.432 224.056 861.598 223.514C861.764 222.973 861.822 222.403 861.767 221.838C861.6 220.692 861 219.656 860.092 218.949C859.185 218.242 858.041 217.92 856.903 218.05C856.343 218.093 855.798 218.249 855.299 218.508C854.8 218.766 854.357 219.123 853.996 219.557C853.635 219.991 853.363 220.494 853.196 221.036C853.029 221.577 852.97 222.147 853.024 222.712Z" fill="#263238"/>
<path d="M845.363 211.088C845.983 211.58 848.901 208.628 853.583 207.903C858.265 207.177 862.034 209.034 862.46 208.37C862.667 208.075 861.961 207.14 860.307 206.254C858.07 205.156 855.553 204.778 853.097 205.172C850.664 205.537 848.41 206.679 846.664 208.431C845.387 209.76 845.059 210.83 845.363 211.088Z" fill="#263238"/>
<path d="M896.228 215.602C896.389 216.752 896.987 217.792 897.897 218.5C898.806 219.208 899.953 219.528 901.092 219.391C901.651 219.351 902.197 219.198 902.697 218.941C903.197 218.684 903.641 218.328 904.002 217.895C904.364 217.461 904.636 216.959 904.802 216.417C904.969 215.876 905.026 215.306 904.971 214.741C904.811 213.592 904.212 212.552 903.303 211.844C902.394 211.136 901.247 210.816 900.107 210.953C899.548 210.995 899.004 211.149 898.505 211.406C898.006 211.664 897.562 212.019 897.201 212.453C896.84 212.886 896.568 213.387 896.4 213.928C896.233 214.469 896.175 215.038 896.228 215.602Z" fill="#263238"/>
<path d="M889.832 204.828C890.452 205.32 893.383 202.368 898.052 201.642C902.722 200.916 906.503 202.774 906.929 202.109C907.136 201.814 906.43 200.879 904.777 199.994C902.535 198.893 900.014 198.515 897.554 198.911C895.09 199.278 892.809 200.439 891.048 202.22C889.832 203.45 889.504 204.68 889.832 204.828Z" fill="#263238"/>
<path d="M879.764 242.552C879.764 242.281 876.76 242.22 871.969 242.343C870.753 242.343 869.537 242.343 869.257 241.543C868.978 240.744 869.148 239.341 869.513 237.853C870.194 234.762 870.911 231.519 871.665 228.124C874.583 214.274 876.529 202.97 875.957 202.86C875.386 202.749 872.589 213.93 869.659 227.706C868.965 231.113 868.297 234.372 867.676 237.484C867.433 238.923 866.886 240.596 867.774 242.306C868.007 242.708 868.329 243.049 868.716 243.303C869.102 243.557 869.541 243.717 869.999 243.769C870.685 243.863 871.38 243.863 872.066 243.769C876.845 243.253 879.788 242.81 879.764 242.552Z" fill="#263238"/>
<path d="M884.968 298.984C900.956 296.761 916.019 290.088 928.476 279.71C928.476 279.71 917.861 306.586 887.132 309.292L884.968 298.984Z" fill="#FF9A6C"/>
<path d="M883.46 253.646C884.178 252.377 885.203 251.314 886.439 250.557C887.675 249.799 889.081 249.372 890.525 249.317C891.575 249.255 892.626 249.41 893.614 249.772C894.603 250.133 895.509 250.694 896.277 251.42C897.02 252.113 897.536 253.02 897.753 254.019C897.971 255.017 897.88 256.059 897.493 257.004C896.508 258.984 893.93 259.809 891.607 259.464C889.281 259.016 887.065 258.105 885.09 256.783C884.501 256.478 883.977 256.06 883.545 255.553C883.333 255.319 883.195 255.028 883.147 254.714C883.1 254.401 883.145 254.081 883.278 253.794" fill="#FF9A6C"/>
<path d="M894.015 243.696C893.237 243.769 894.015 248.911 890.209 253.216C886.403 257.521 880.943 257.804 881.004 258.517C881.004 258.861 882.366 259.329 884.652 259.046C887.632 258.628 890.37 257.16 892.386 254.901C894.319 252.736 895.344 249.895 895.243 246.98C895.109 244.803 894.355 243.622 894.015 243.696Z" fill="#263238"/>
<path d="M888.494 190.707C889.151 191.937 893.723 190.596 899.305 190.412C904.886 190.227 909.556 191.064 910.103 189.797C910.346 189.194 909.397 188.112 907.415 187.14C904.799 185.985 901.957 185.446 899.105 185.565C896.252 185.685 893.464 186.459 890.951 187.829C889.066 188.961 888.203 190.129 888.494 190.707Z" fill="#263238"/>
<path d="M843.624 190.215C844.609 191.162 847.661 189.551 851.528 188.899C855.395 188.247 858.824 188.518 859.359 187.275C859.614 186.673 858.933 185.689 857.353 184.889C855.244 183.971 852.915 183.705 850.657 184.126C848.4 184.546 846.316 185.634 844.67 187.251C843.442 188.567 843.162 189.748 843.624 190.215Z" fill="#263238"/>
<path d="M953.149 158.998C944.297 140.007 912.267 116.427 891.936 120.646L861.791 144.951C863.601 150.466 866.85 155.385 871.195 159.186C875.54 162.988 880.82 165.532 886.476 166.55C892.495 167.559 899.548 167.103 903.658 171.679C907.768 176.255 906.783 184.127 910.759 188.985C916.268 195.726 928.622 193.708 933.073 201.211C935.031 204.483 934.8 208.739 936.794 211.986C939.469 216.303 951.739 220.596 956.25 218.407C960.761 216.217 959.74 208.05 960.725 203.536C962.415 195.849 960.81 192.195 959.399 188.21C956.104 178.764 957.381 168.051 953.149 158.998Z" fill="#263238"/>
<path d="M942.789 224.36C942.412 221.802 944.418 215.344 946.85 214.52C953.344 212.454 965.419 211.137 968.106 228.21C971.754 251.58 947.872 250.461 947.714 249.796C947.556 249.132 944.102 233.142 942.789 224.36Z" fill="#FFBF9D"/>
<path d="M953.368 239.833C953.465 239.735 953.818 240.055 954.584 240.252C955.605 240.518 956.688 240.368 957.6 239.833C959.886 238.542 961.321 234.298 960.773 230.067C960.516 228.059 959.818 226.134 958.731 224.434C958.401 223.739 957.908 223.136 957.296 222.677C956.684 222.218 955.97 221.918 955.216 221.802C954.735 221.751 954.252 221.874 953.852 222.149C953.451 222.423 953.16 222.832 953.028 223.302C952.821 224.003 953.028 224.446 952.918 224.532C952.809 224.618 952.371 224.225 952.395 223.228C952.435 222.632 952.676 222.068 953.076 221.629C953.632 221.038 954.397 220.693 955.204 220.67C957.004 220.51 958.852 221.9 959.971 223.61C961.273 225.474 962.108 227.631 962.403 229.895C962.999 234.618 961.309 239.403 958.123 240.965C957.534 241.248 956.89 241.395 956.238 241.395C955.586 241.395 954.942 241.248 954.353 240.965C953.502 240.35 953.295 239.883 953.368 239.833Z" fill="#FF9A6C"/>
<path d="M867.725 137.091C866.667 146.931 853.692 160.769 848.269 168.924C837.848 184.483 836 189.465 839.672 221.15C832.765 210.855 827.22 200.621 826.296 188.21C825.372 175.8 828.46 162.921 835.951 153.057C843.442 143.192 855.492 136.698 867.786 137.067" fill="#263238"/>
<path d="M922.822 103.722C927.686 98.2973 934.715 94.7672 942.011 92.9222C952.407 90.29 963.826 91.0034 973.286 95.579C982.747 100.155 990.067 108.74 991.976 118.58C992.915 123.635 992.473 128.853 990.699 133.673C988.925 138.492 985.886 142.732 981.908 145.935C987.317 151.24 993.912 155.147 1001.13 157.325C999.163 160.314 995.527 162.06 991.854 162.688C988.162 163.155 984.426 163.13 980.74 162.614C983.256 166.417 987.021 169.196 991.368 170.461C985.384 171.859 979.142 171.651 973.262 169.859C967.51 168.095 962.006 165.595 956.882 162.417C939.092 151.974 929.279 142.823 917.265 126.747C915.696 119.81 917.922 109.158 922.822 103.722Z" fill="#263238"/>
<path d="M961.175 153.02C948.115 133.721 931.492 123.402 916.45 120.191L961.175 153.02Z" fill="#263238"/>
<path d="M916.45 120.191C917.14 120.47 917.852 120.689 918.578 120.843C919.952 121.237 921.934 121.839 924.318 122.762C930.523 125.2 936.357 128.513 941.646 132.602C946.936 136.681 951.757 141.347 956.019 146.513C957.624 148.518 958.925 150.203 959.764 151.31C960.182 151.938 960.654 152.526 961.175 153.069C960.823 152.396 960.416 151.755 959.959 151.15C959.18 149.92 957.94 148.26 956.372 146.23C952.217 140.909 947.43 136.126 942.12 131.987C936.767 127.857 930.821 124.58 924.488 122.27C922.578 121.583 920.629 121.012 918.651 120.56C917.928 120.378 917.192 120.255 916.45 120.191Z" fill="#455A64"/>
<path d="M976.74 169.465L976.448 169.563L975.597 169.908C974.867 170.228 973.773 170.646 972.338 171.138C968.282 172.511 964.076 173.379 959.813 173.721C953.492 174.197 947.137 173.783 940.928 172.491C933.324 170.875 925.89 168.532 918.724 165.492C911.063 162.331 903.84 159.084 897.408 155.898C891.694 153.102 886.195 149.879 880.955 146.255C877.433 143.801 874.107 141.07 871.008 138.088C869.89 137.042 869.087 136.169 868.576 135.628L867.932 134.976C867.786 134.841 867.713 134.767 867.701 134.779C867.689 134.791 867.701 134.865 867.883 135.025L868.479 135.726C869.002 136.341 869.78 137.239 870.911 138.321C873.958 141.391 877.257 144.193 880.773 146.698C885.994 150.408 891.495 153.698 897.225 156.538C903.67 159.773 910.881 163.044 918.554 166.218C925.764 169.266 933.249 171.601 940.904 173.192C947.174 174.458 953.59 174.814 959.959 174.25C964.216 173.856 968.408 172.922 972.435 171.47C973.858 170.916 974.94 170.461 975.657 170.092L976.472 169.686C976.654 169.527 976.752 169.477 976.74 169.465Z" fill="#455A64"/>
<path d="M907.841 285.294L905.64 280.94C905.798 280.854 921.071 272.933 926.944 267.939C940.782 256.18 953.502 237.398 953.636 237.189L957.648 239.956C957.113 240.756 944.43 259.489 930.069 271.69C923.746 277.029 908.485 284.962 907.841 285.294Z" fill="#455A64"/>
<path d="M919.211 271.703C919.211 271.703 898.344 281.124 898.344 283.215C898.344 285.306 901.652 289.488 904.132 289.279C906.613 289.07 913.787 284.987 915.076 283.314C916.365 281.641 918.651 277.336 921.156 275.245L919.211 271.703Z" fill="#263238"/>
<path d="M957.478 208.37L952.614 208.136C952.79 193.949 950.375 179.85 945.488 166.55C934.933 139.047 914.638 124.287 885.187 122.664C882.508 122.545 879.824 122.73 877.186 123.217L879.314 121.175C880.345 120.191 881.544 119.403 882.852 118.851C884.646 118.092 886.595 117.788 888.531 117.965C925.716 121.224 942.521 145.136 950.073 164.914C955.217 178.801 957.729 193.543 957.478 208.37Z" fill="#455A64"/>
<path d="M955.046 253.105C963.555 253.105 970.453 243.072 970.453 230.694C970.453 218.317 963.555 208.284 955.046 208.284C946.537 208.284 939.639 218.317 939.639 230.694C939.639 243.072 946.537 253.105 955.046 253.105Z" fill="#455A64"/>
<path d="M970.453 230.694C970.438 230.593 970.438 230.489 970.453 230.387C970.453 230.141 970.453 229.846 970.38 229.477C970.325 228.315 970.208 227.157 970.027 226.008C969.399 221.771 967.768 217.749 965.273 214.286C964.432 213.167 963.461 212.155 962.379 211.273C961.2 210.334 959.872 209.606 958.451 209.12C956.93 208.622 955.319 208.466 953.733 208.665C952.054 208.92 950.447 209.528 949.015 210.449C945.98 212.585 943.636 215.58 942.278 219.059C940.759 222.763 939.978 226.734 939.978 230.744C939.978 234.754 940.759 238.724 942.278 242.429C943.635 245.908 945.979 248.904 949.015 251.039C950.447 251.96 952.054 252.567 953.733 252.822C955.32 253.015 956.929 252.86 958.451 252.367C959.872 251.881 961.2 251.153 962.379 250.215C963.458 249.329 964.429 248.318 965.273 247.201C967.768 243.738 969.399 239.717 970.027 235.479C970.207 234.33 970.325 233.172 970.38 232.011C970.38 231.642 970.38 231.346 970.453 231.1C970.437 230.999 970.437 230.895 970.453 230.793C970.472 230.894 970.472 230.999 970.453 231.1V232.011C970.44 233.183 970.359 234.353 970.21 235.516C969.666 239.829 968.069 243.938 965.565 247.472C964.713 248.63 963.725 249.68 962.622 250.596C961.406 251.589 960.027 252.359 958.548 252.871C956.954 253.401 955.265 253.573 953.599 253.376C951.839 253.12 950.153 252.492 948.65 251.531C945.504 249.366 943.069 246.299 941.658 242.724C940.093 238.945 939.287 234.89 939.287 230.793C939.287 226.696 940.093 222.64 941.658 218.862C943.069 215.287 945.504 212.22 948.65 210.055C950.153 209.094 951.839 208.465 953.599 208.21C955.265 208.013 956.954 208.185 958.548 208.714C960.027 209.226 961.406 209.996 962.622 210.99C963.728 211.903 964.716 212.953 965.565 214.114C968.073 217.646 969.67 221.755 970.21 226.07C970.358 227.228 970.439 228.395 970.453 229.563V230.485C970.461 230.555 970.461 230.625 970.453 230.694Z" fill="#263238"/>
<path d="M957.417 243.708C962.837 243.708 967.23 237.32 967.23 229.44C967.23 221.56 962.837 215.172 957.417 215.172C951.998 215.172 947.604 221.56 947.604 229.44C947.604 237.32 951.998 243.708 957.417 243.708Z" fill="#455A64"/>
<path d="M967.23 229.44C967.157 229.44 967.23 228.357 966.878 226.451C966.471 223.778 965.428 221.245 963.838 219.071C962.757 217.58 961.257 216.452 959.533 215.836C958.576 215.525 957.564 215.428 956.566 215.553C955.514 215.712 954.507 216.093 953.611 216.672C951.703 218.017 950.227 219.899 949.367 222.084C948.406 224.423 947.914 226.932 947.92 229.464C947.908 231.998 948.4 234.508 949.367 236.844C950.227 239.03 951.703 240.912 953.611 242.256C954.507 242.836 955.514 243.217 956.566 243.376C957.564 243.501 958.576 243.404 959.533 243.093C961.257 242.477 962.757 241.349 963.838 239.858C965.428 237.684 966.471 235.151 966.878 232.478C967.182 230.571 967.157 229.489 967.23 229.501C967.247 229.759 967.247 230.018 967.23 230.276C967.229 231.025 967.18 231.773 967.085 232.515C966.762 235.274 965.754 237.906 964.154 240.165C963.04 241.759 961.47 242.97 959.655 243.634C958.631 243.986 957.543 244.104 956.469 243.978C955.329 243.8 954.24 243.381 953.271 242.748C951.249 241.361 949.683 239.395 948.772 237.103C947.769 234.682 947.252 232.083 947.252 229.458C947.252 226.833 947.769 224.235 948.772 221.814C949.683 219.521 951.249 217.556 953.271 216.168C954.236 215.538 955.322 215.119 956.457 214.938C957.535 214.813 958.627 214.931 959.655 215.283C961.47 215.947 963.04 217.157 964.154 218.751C965.754 221.01 966.762 223.642 967.085 226.402C967.18 227.144 967.229 227.892 967.23 228.64C967.247 228.907 967.247 229.174 967.23 229.44Z" fill="#263238"/>
<path d="M958.098 239.698C961.993 239.698 965.151 235.105 965.151 229.44C965.151 223.774 961.993 219.182 958.098 219.182C954.203 219.182 951.045 223.774 951.045 229.44C951.045 235.105 954.203 239.698 958.098 239.698Z" fill="#455A64"/>
<path d="M965.151 229.44C965.09 229.44 965.09 228.665 964.871 227.3C964.558 225.38 963.8 223.564 962.658 221.998C961.889 220.937 960.821 220.135 959.594 219.698C958.895 219.472 958.155 219.409 957.428 219.513C956.702 219.618 956.008 219.887 955.399 220.301C952.76 222.06 951.362 225.75 951.349 229.428C951.337 233.105 952.76 236.808 955.399 238.566C956.008 238.981 956.702 239.25 957.428 239.354C958.155 239.459 958.895 239.395 959.594 239.169C960.821 238.732 961.889 237.931 962.658 236.869C963.8 235.304 964.558 233.487 964.871 231.568C965.09 230.202 965.09 229.428 965.151 229.44C965.18 229.623 965.18 229.81 965.151 229.993C965.157 230.532 965.129 231.07 965.066 231.605C964.847 233.604 964.127 235.513 962.974 237.152C962.154 238.286 961.014 239.143 959.703 239.612C958.957 239.866 958.164 239.954 957.381 239.87C956.551 239.754 955.755 239.461 955.046 239.009C953.574 238.001 952.435 236.57 951.775 234.901C951.043 233.15 950.666 231.268 950.666 229.366C950.666 227.465 951.043 225.583 951.775 223.831C952.435 222.162 953.574 220.731 955.046 219.723C955.755 219.271 956.551 218.978 957.381 218.862C958.164 218.778 958.957 218.866 959.703 219.12C961.014 219.589 962.154 220.446 962.974 221.58C964.127 223.219 964.847 225.128 965.066 227.127C965.129 227.662 965.157 228.2 965.151 228.739C965.195 228.97 965.195 229.208 965.151 229.44Z" fill="#263238"/>
</g>
<defs>
<filter id="filter0_d_3_320" x="549" y="0.5" width="616" height="623" filterUnits="userSpaceOnUse" color-interpolation-filters="sRGB">
<feFlood flood-opacity="0" result="BackgroundImageFix"/>
<feColorMatrix in="SourceAlpha" type="matrix" values="0 0 0 0 0 0 0 0 0 0 0 0 0 0 0 0 0 0 127 0" result="hardAlpha"/>
<feOffset dy="4"/>
<feGaussianBlur stdDeviation="2"/>
<feComposite in2="hardAlpha" operator="out"/>
<feColorMatrix type="matrix" values="0 0 0 0 0 0 0 0 0 0 0 0 0 0 0 0 0 0 0.25 0"/>
<feBlend mode="normal" in2="BackgroundImageFix" result="effect1_dropShadow_3_320"/>
<feBlend mode="normal" in="SourceGraphic" in2="effect1_dropShadow_3_320" result="shape"/>
</filter>
</defs>
</svg>
